<svg width="88" height="88" viewBox="0 0 88 88" fill="none" xmlns="http://www.w3.org/2000/svg">
<path d="M55.078 61.3658H64.5758L49.4141 22.0167H38.9128L23.7511 61.3658H33.2496L35.7273 54.7005H50.0531L47.4598 47.325H38.0273L44.1633 30.3939L55.078 61.3658ZM86.3978 32.2327C86.0602 31.0173 84.8048 30.3033 83.5842 30.6422C82.3683 30.9798 81.6558 32.2393 81.9933 33.4551C82.9465 36.8875 83.4295 40.4353 83.4295 44C83.4295 65.7415 65.7415 83.4288 44 83.4288C22.2585 83.4288 4.57084 65.7415 4.57084 44C4.57084 22.2582 22.2585 4.5705 44 4.5705C53.2101 4.5705 62.1218 7.84231 69.1553 13.6647C68.8817 14.3179 68.7297 15.0346 68.7297 15.7867C68.7297 18.8237 71.1917 21.2857 74.2287 21.2857C77.2657 21.2857 79.7277 18.8237 79.7277 15.7867C79.7277 12.7497 77.2657 10.2878 74.2287 10.2878C73.644 10.2878 73.0812 10.3809 72.5526 10.55C64.6326 3.8005 54.4888 0 44 0C19.7385 0 0 19.7381 0 44C0 68.2615 19.7385 87.9997 44 87.9997C68.2615 87.9997 88 68.2615 88 44C88 40.0221 87.4613 36.0628 86.3978 32.2327Z" fill="#112B49"/>
</svg>
