<svg width="102" height="92" viewBox="0 0 102 92" fill="none" xmlns="http://www.w3.org/2000/svg">
<path d="M0.300781 46.0999C0.300781 38.4139 7.77635 31.239 19.5616 27.1946C17.2082 15.2999 19.1401 5.71225 25.5921 1.97665C32.2239 -1.86336 42.1039 0.79464 51.4815 9.02464C60.6225 1.12704 69.8607 -1.98096 76.3071 1.76544C82.9329 5.61625 84.9477 15.8538 82.5293 28.1202C94.8046 32.1946 101.671 38.3127 101.671 46.0999C101.671 53.6075 94.1819 60.1023 82.5552 64.1207C85.1588 76.8939 82.9528 86.2487 76.2334 90.1387C69.7555 93.8891 60.4097 90.6203 51.1345 82.5163C41.4847 91.1179 32.2314 93.7439 25.5192 89.8431C19.0473 86.0819 17.2006 76.3199 19.5616 64.2051C8.17397 60.2191 0.300781 53.5771 0.300781 46.0999Z" fill="white"/>
<path d="M80.0927 60.1305C79.1344 60.4605 78.1681 60.7662 77.1946 61.0473C77.356 61.706 77.5053 62.3675 77.6424 63.0317C79.8361 73.7229 78.4018 82.3357 73.5036 85.1709C68.8074 87.8901 61.1266 85.0549 53.3694 78.2777C52.605 77.6084 51.8576 76.9198 51.1279 76.2125C50.6392 76.6828 50.1419 77.1439 49.6362 77.5957C41.5064 84.8429 33.3575 87.8965 28.4645 85.0529C23.7727 82.3261 22.383 74.2289 24.358 64.0969C24.5545 63.0936 24.7763 62.0954 25.0233 61.1033C23.8703 60.7745 22.7567 60.4241 21.6913 60.0513C12.1603 56.7153 6.07324 51.4865 6.07324 46.0633C6.07324 40.4617 12.6073 34.8433 22.5352 31.4369C23.3402 31.162 24.1519 30.9072 24.9695 30.6729C24.7039 29.6041 24.4681 28.5281 24.2623 27.4461C22.3794 17.4901 23.85 9.58492 28.5294 6.87492C33.3627 4.07691 41.4745 6.95292 49.3736 13.8849C49.9979 14.4329 50.6247 15.0141 51.2522 15.6233C52.0426 14.8577 52.8541 14.1143 53.6857 13.3941C61.337 6.78412 68.8935 4.11491 73.5689 6.83212C78.3978 9.63852 79.9668 18.1309 77.9292 28.4633C77.7739 29.2525 77.5926 30.0585 77.3894 30.8793C77.9591 31.0481 78.5181 31.2225 79.0635 31.4041C89.3842 34.8369 96.0988 40.3869 96.0988 46.0633C96.0988 51.5061 89.8157 56.7701 80.0927 60.1305Z" fill="#9053DE"/>
<path d="M77.8541 35.0689C77.362 34.9053 76.8568 34.7473 76.3421 34.5941C75.2026 38.2153 73.6647 42.0661 71.7833 46.0441C73.579 49.9281 75.0572 53.7293 76.1648 57.3273C77.0855 57.0593 77.9796 56.7773 78.841 56.4793C87.1719 53.6005 92.2534 49.3433 92.2534 46.0633C92.2534 42.5693 86.7652 38.0333 77.8545 35.0689H77.8541ZM74.1567 27.7133C75.0576 23.1445 75.1862 19.0137 74.5894 15.7845C74.0531 12.8829 72.975 10.9485 71.6419 10.1737C68.8047 8.52493 62.7372 10.6681 56.1943 16.3209C55.4441 16.9689 54.6883 17.6609 53.9305 18.3929C56.4672 21.1785 59.0024 24.4169 61.4766 28.0129C65.8289 28.4005 69.9406 29.0345 73.6695 29.8997C73.8527 29.1557 74.0161 28.4265 74.1567 27.7133ZM36.7649 10.4585C33.9931 9.47573 31.7855 9.44773 30.4512 10.2201C27.6112 11.8641 26.4311 18.2121 28.0411 26.7261C28.2326 27.7323 28.4518 28.733 28.6985 29.7269C32.3859 28.9081 36.4677 28.3189 40.8304 27.9637C43.321 24.4449 45.9294 21.2105 48.5582 18.3781C47.9995 17.8355 47.4276 17.3069 46.843 16.7925C43.35 13.7269 39.8499 11.5525 36.7653 10.4585H36.7649ZM23.7792 35.0905C19.3894 36.5969 15.7642 38.5545 13.2792 40.6905C11.0465 42.6105 9.91895 44.5165 9.91895 46.0633C9.91895 49.3541 14.8064 53.5521 22.9577 56.4053C23.9808 56.7619 25.0141 57.0883 26.0562 57.3841C27.1829 53.7053 28.6607 49.8589 30.444 45.9693C28.6376 42.0217 27.1387 38.1141 26.0016 34.3921C25.2552 34.6066 24.5142 34.8395 23.7792 35.0905ZM28.1324 64.8385C26.4403 73.5197 27.5638 80.0681 30.3914 81.7113C33.4035 83.4617 40.0631 80.9657 47.0824 74.7085C47.5311 74.3085 47.9817 73.8897 48.4331 73.4565C45.8179 70.6369 43.2333 67.4269 40.7643 63.9285C36.5303 63.5345 32.4771 62.9017 28.7511 62.0541C28.5216 62.977 28.3153 63.9056 28.1324 64.8389V64.8385ZM66.9652 55.2117C66.0852 56.738 65.1724 58.245 64.2277 59.7317C67.1003 59.3677 69.8522 58.8837 72.4363 58.2913C71.6606 55.7949 70.6937 53.1845 69.555 50.5085C68.723 52.0934 67.8596 53.6615 66.9652 55.2117ZM51.1292 70.6973C52.903 68.7681 54.6795 66.6137 56.427 64.2765C52.8823 64.4447 49.3316 64.4455 45.7868 64.2789C47.5358 66.5945 49.3275 68.7457 51.1292 70.6973ZM35.1916 55.1853C34.3084 53.6474 33.4612 52.089 32.6504 50.5113C31.5305 53.1781 30.5723 55.8001 29.7898 58.3321C32.3584 58.9093 35.0975 59.3809 37.9514 59.7389C36.9961 58.243 36.0759 56.7247 35.1916 55.1853ZM38.0335 32.1121C35.0852 32.4425 32.3046 32.8901 29.7368 33.4513C30.5316 36.0281 31.511 38.7065 32.6548 41.4305C33.469 39.8517 34.32 38.2924 35.2071 36.7537C36.1124 35.1842 37.0548 33.6366 38.0335 32.1121ZM51.2356 21.1565C49.4128 23.1313 47.5948 25.3153 45.8191 27.6645C47.5426 27.5965 49.3 27.5621 51.0862 27.5621C52.9213 27.5621 54.7353 27.6033 56.5206 27.6833C54.7676 25.2913 52.9974 23.1041 51.2356 21.1565ZM69.5916 41.5693C70.7949 38.8157 71.8092 36.1517 72.6148 33.6185C70.0044 33.0205 67.1864 32.5389 64.2169 32.1813C65.1685 33.6958 66.09 35.2292 66.9808 36.7805C67.8863 38.3572 68.7568 39.9538 69.5916 41.5693ZM63.6492 38.7093C62.2855 36.3309 60.8451 33.9977 59.3303 31.7133C56.6593 31.5217 53.899 31.4229 51.0862 31.4229C48.2849 31.4229 45.5597 31.5105 42.9353 31.6813C41.3812 33.9604 39.9136 36.2977 38.5355 38.6881C37.1639 41.0659 35.8827 43.4951 34.6947 45.9705C35.8797 48.4467 37.157 50.8772 38.524 53.2569V53.2561C39.8905 55.6364 41.3466 57.9636 42.8891 60.2329C45.5665 60.4361 48.3116 60.5425 51.0866 60.5425C53.8739 60.5425 56.6226 60.4353 59.2992 60.2305C60.8261 57.9647 62.2729 55.6456 63.6368 53.2773C65.0085 50.9029 66.3028 48.4843 67.5178 46.0253C66.3153 43.5413 65.0251 41.1011 63.6496 38.7093H63.6492ZM71.5829 81.8261C74.5974 80.0805 75.7699 73.0417 73.8758 63.8109C73.7517 63.2096 73.6167 62.6106 73.471 62.0141C69.7363 62.8793 65.6803 63.5233 61.434 63.9233C58.9602 67.4597 56.3971 70.6753 53.8241 73.4585C54.4984 74.1111 55.1886 74.7468 55.8943 75.3649C62.5408 81.1721 68.7525 83.4649 71.5829 81.8261Z" fill="white"/>
<path d="M51.0858 54.134C55.5258 54.134 59.1247 50.5204 59.1247 46.0632C59.1247 41.6056 55.5258 37.992 51.0858 37.992C46.6462 37.992 43.0469 41.6056 43.0469 46.0632C43.0469 50.5204 46.6462 54.134 51.0858 54.134Z" fill="#9053DE"/>
</svg>
