<svg width="84" height="80" viewBox="0 0 84 80" fill="none" xmlns="http://www.w3.org/2000/svg">
<g clip-path="url(#clip0)">
<path d="M58.2032 55.6494C61.303 55.3288 63.6547 52.6588 63.5477 49.4545C63.441 46.2505 60.7685 43.6871 57.5617 43.6871H57.3481C54.034 43.794 51.4687 46.5708 51.5757 49.8817C51.6827 51.4838 52.3238 52.8722 53.2859 53.8335C49.6516 60.9896 44.0931 66.223 35.7555 70.602C30.0901 73.5926 24.211 74.6607 18.332 73.9132C13.5217 73.2723 9.78043 71.1364 7.42842 67.6114C4.00805 62.3781 3.68747 56.7172 6.57366 51.0567C8.60475 46.998 11.8112 44.0074 13.8423 42.5121C13.4147 41.1237 12.7733 38.774 12.4527 37.0653C-3.04697 48.2798 -1.44343 63.4462 3.25992 70.602C6.78727 75.9425 13.9493 79.2534 21.8594 79.2534C23.9971 79.2534 26.1348 79.0397 28.2729 78.506C41.9554 75.8357 52.3242 67.7183 58.2032 55.6494ZM77.0166 42.4055C68.8925 32.8997 56.9205 27.6664 43.238 27.6664H41.5279C40.5658 25.7439 38.5347 24.462 36.29 24.462H36.0761C32.7626 24.5689 30.1974 27.3458 30.304 30.657C30.411 33.861 33.0832 36.4244 36.29 36.4244H36.5036C38.8553 36.3175 40.8864 34.8222 41.7415 32.7929H43.6656C51.7896 32.7929 59.4858 35.1425 66.4342 39.7353C71.7787 43.2599 75.627 47.8526 77.7647 53.4063C79.5819 57.8922 79.4749 62.2712 77.5508 66.0096C74.5579 71.6701 69.534 74.7676 62.9065 74.7676C58.6307 74.7676 54.5689 73.4857 52.4308 72.5245C51.2551 73.5926 49.1171 75.3013 47.6205 76.3697C52.2172 78.5056 56.9205 79.6806 61.41 79.6806C71.6717 79.6806 79.2613 74.0198 82.1475 68.3592C85.2473 62.1643 85.0333 51.4838 77.0166 42.4055ZM22.7145 57.4647C22.8214 60.669 25.4937 63.2321 28.7005 63.2321H28.9144C32.2281 63.1255 34.7934 60.3484 34.6864 57.0375C34.5798 53.8332 31.9072 51.2701 28.7005 51.2701H28.4868C28.2729 51.2701 27.952 51.2701 27.7387 51.3766C23.356 44.1139 21.5388 36.2106 22.1803 27.6661C22.6075 21.2577 24.7456 15.7037 28.4868 11.111C31.5866 7.15916 37.5726 5.23669 41.6348 5.13014C52.9653 4.91639 57.7753 19.0146 58.0962 24.6755C59.4858 24.9958 61.8375 25.7436 63.441 26.2776C62.1581 8.97541 51.4687 0.00366211 41.2073 0.00366211C31.5866 0.00366211 22.7145 6.94606 19.1868 17.1993C14.2698 30.8704 17.4766 44.0074 23.4626 54.3675C22.9284 55.115 22.6075 56.29 22.7145 57.465V57.4647Z" fill="#764ABC"/>
</g>
<defs>
<clipPath id="clip0">
<rect width="84" height="80" fill="white"/>
</clipPath>
</defs>
</svg>
